<svg width="47" height="45" viewBox="0 0 47 45" fill="none" xmlns="http://www.w3.org/2000/svg">
<g id="icon">
<path id="orange" d="M23.9356 11.1678C23.9356 11.1678 3.88195 1.42549 2.70117 0.856465C1.52038 0.287442 0.3396 0.632304 0.3396 1.82208V43.809C0.3396 44.7057 1.18583 45.085 2.20917 44.6022C3.23252 44.1022 23.9356 34.0494 23.9356 34.0494C23.9356 34.0494 26.7498 32.6872 28.147 31.9975C30.4102 30.894 34.9366 28.7041 34.9366 28.7041C34.9366 28.7041 44.2844 24.1691 45.5242 23.5656C46.7641 22.9621 46.646 22.1345 45.603 21.6689C44.5599 21.2033 34.9562 16.496 34.9562 16.496L23.9356 11.1678Z" fill="url(#paint0_linear_13_3242)"/>
<g id="blue">
<g id="Clip-2">
<path id="path-3_1_" d="M27.635 22.5487L1.26414 0.649902C0.654066 0.770604 0.280151 1.18444 0.280151 1.85692V43.7577C0.280151 44.3267 0.535988 44.6716 0.870543 44.7923L27.635 22.5487Z" fill="url(#paint1_linear_13_3242)"/>
</g>
</g>
<g id="red">
<path id="Fill-7" d="M23.8925 11.1685C23.8532 11.2547 3.79953 1.49513 2.63842 0.995083C1.45764 0.339845 0.276855 0.70195 0.276855 1.85724V43.9304C0.276855 44.8616 1.12308 45.2409 2.04803 44.7926C3.16978 44.2408 23.8532 34.1881 23.8925 34.1019L34.9132 28.7565C34.8541 28.8255 44.1823 24.2905 45.3434 23.756C46.6817 23.0835 46.5439 22.2558 45.5402 21.8592C44.4578 21.3075 34.8541 16.6001 34.9132 16.5139L23.8925 11.1685Z" fill="url(#paint2_linear_13_3242)"/>
</g>
<g id="green">
<g id="Clip-5">
<path id="path-9_1_" d="M2.6573 0.839215C2.14562 0.615055 1.65363 0.546082 1.24036 0.632298L27.6309 22.5655L34.9321 16.5132L23.9311 11.1678C23.9311 11.1678 13.5599 6.13285 7.30171 3.09806L2.6573 0.839215Z" fill="url(#paint3_linear_13_3242)"/>
</g>
</g>
</g>
<defs>
<linearGradient id="paint0_linear_13_3242" x1="11.2177" y1="14.5493" x2="25.0677" y2="37.7461" gradientUnits="userSpaceOnUse">
<stop stop-color="#FF177B"/>
<stop offset="1" stop-color="#FFEC73"/>
</linearGradient>
<linearGradient id="paint1_linear_13_3242" x1="18.3306" y1="-15.5352" x2="-5.72852" y2="42.7759" gradientUnits="userSpaceOnUse">
<stop stop-color="#064AA2"/>
<stop offset="1" stop-color="#63FFD4"/>
</linearGradient>
<linearGradient id="paint2_linear_13_3242" x1="27.4176" y1="9.53923" x2="-6.79785" y2="32.9001" gradientUnits="userSpaceOnUse">
<stop stop-color="#FF4521"/>
<stop offset="1" stop-color="#8A33DB"/>
</linearGradient>
<linearGradient id="paint3_linear_13_3242" x1="6.23044" y1="-6.39569" x2="16.6981" y2="24.6578" gradientUnits="userSpaceOnUse">
<stop stop-color="#00A3B5"/>
<stop offset="1" stop-color="#D6FFA1"/>
</linearGradient>
</defs>
</svg>
